<?xml version="1.0" standalone="no"?>
<!DOCTYPE svg PUBLIC "-//W3C//DTD SVG 20010904//EN"
 "http://www.w3.org/TR/2001/REC-SVG-20010904/DTD/svg10.dtd">
<svg version="1.0" xmlns="http://www.w3.org/2000/svg"
 width="1080.000000pt" height="1080.000000pt" viewBox="0 0 1080.000000 1080.000000"
 preserveAspectRatio="xMidYMid meet">
<metadata>
Created by potrace 1.14, written by Peter Selinger 2001-2017
</metadata>
<g transform="translate(0.000000,1080.000000) scale(0.100000,-0.100000)"
fill="#000000" stroke="none">
<path d="M2205 7781 c-140 -26 -205 -46 -320 -101 -338 -160 -543 -472 -572
-870 -19 -260 35 -483 163 -670 176 -258 383 -419 974 -755 599 -341 829 -526
970 -781 181 -326 147 -765 -82 -1062 -133 -172 -361 -308 -593 -353 -102 -20
-379 -18 -478 4 -103 22 -265 87 -352 141 -149 93 -296 252 -392 425 -54 97
-131 315 -154 434 -7 37 -15 57 -22 54 -7 -2 -77 -21 -157 -42 -80 -21 -147
-40 -149 -42 -8 -6 33 -183 65 -283 111 -339 313 -611 580 -785 107 -70 150
-91 274 -135 346 -124 762 -127 1095 -10 111 40 168 68 270 135 287 187 457
451 522 808 20 111 23 378 5 483 -46 271 -159 481 -377 700 -191 192 -332 289
-840 574 -302 170 -537 317 -640 402 -105 86 -220 224 -270 323 -70 138 -89
231 -82 390 10 221 67 355 212 500 160 160 333 227 590 227 378 2 664 -162
841 -482 56 -100 104 -243 148 -441 l6 -26 149 41 c83 23 153 45 157 48 11 11
-16 135 -56 258 -113 347 -296 587 -565 743 -106 62 -206 99 -351 132 -161 37
-417 44 -569 16z"/>
<path d="M6495 7789 c-283 -25 -613 -119 -890 -254 -707 -346 -1185 -982
-1324 -1760 -145 -814 118 -1648 695 -2205 473 -456 1093 -702 1774 -704 206
-1 300 8 500 45 458 86 890 314 1225 646 347 343 577 774 674 1260 25 123 51
325 51 396 0 16 18 17 230 17 l230 0 0 153 0 153 -1550 2 -1550 3 0 -156 0
-155 1150 0 1150 0 0 -38 c0 -60 -19 -197 -46 -330 -142 -708 -627 -1292
-1284 -1545 -140 -54 -229 -79 -380 -108 -164 -31 -505 -38 -692 -14 -736 93
-1365 542 -1668 1190 -91 192 -153 397 -186 615 -26 161 -25 511 0 665 67 416
226 770 484 1076 103 122 198 211 337 314 147 109 187 133 345 209 604 291
1284 301 1854 27 197 -94 348 -203 511 -366 77 -77 156 -160 175 -184 l35 -43
130 92 c72 51 132 94 134 96 9 8 -127 173 -229 274 -357 359 -826 572 -1380
630 -112 11 -363 11 -505 -1z"/>
</g>
</svg>
