<?xml version="1.0" standalone="no"?>
<!DOCTYPE svg PUBLIC "-//W3C//DTD SVG 20010904//EN"
 "http://www.w3.org/TR/2001/REC-SVG-20010904/DTD/svg10.dtd">
<svg version="1.0" xmlns="http://www.w3.org/2000/svg"
 width="1080.000000pt" height="1080.000000pt" viewBox="0 0 1080.000000 1080.000000"
 preserveAspectRatio="xMidYMid meet">
<metadata>
Created by potrace 1.14, written by Peter Selinger 2001-2017
</metadata>
<g transform="translate(0.000000,1080.000000) scale(0.100000,-0.100000)"
fill="#000000" stroke="none">
<path d="M2420 8093 c-292 -29 -590 -131 -823 -280 -379 -242 -636 -658 -698
-1130 -17 -132 -7 -446 20 -595 40 -228 128 -443 249 -612 79 -109 246 -266
372 -349 58 -38 173 -102 255 -142 225 -110 312 -140 948 -330 590 -176 901
-360 1034 -611 97 -184 117 -449 48 -646 -99 -282 -366 -472 -740 -525 -381
-53 -751 73 -1155 394 -121 95 -331 310 -455 465 -135 168 -310 431 -409 614
l-77 140 -62 2 -62 1 32 -772 c18 -425 35 -827 39 -894 l6 -123 49 0 49 0 31
63 c46 91 76 127 127 149 64 29 65 29 614 -86 409 -85 694 -119 993 -119 213
1 382 16 520 48 537 123 936 429 1159 889 128 265 180 518 180 871 0 162 -4
223 -22 320 -60 333 -179 573 -385 780 -268 268 -583 419 -1282 615 -301 84
-562 165 -670 207 -326 128 -531 294 -605 491 -91 238 -50 507 105 704 112
142 310 252 531 294 118 22 321 22 438 -1 371 -71 708 -316 1027 -746 133
-178 200 -281 330 -506 l94 -163 64 0 63 0 -6 68 c-3 37 -16 376 -28 755 l-22
687 -41 0 c-39 0 -44 -3 -74 -50 -35 -54 -83 -85 -148 -96 -60 -9 -172 12
-410 77 -431 118 -639 150 -956 147 -117 0 -228 -3 -247 -5z"/>
<path d="M7465 8089 c-515 -48 -1000 -235 -1354 -522 -161 -130 -338 -329
-461 -517 -141 -217 -283 -564 -348 -850 -112 -492 -123 -1076 -31 -1585 50
-273 114 -474 224 -700 116 -239 230 -399 401 -566 180 -174 314 -266 549
-380 311 -149 659 -232 1100 -260 379 -24 683 15 1235 160 339 89 425 104 552
99 95 -4 113 -8 172 -37 43 -21 82 -50 113 -85 45 -50 52 -55 106 -61 l57 -7
0 1061 0 1061 145 0 145 0 0 80 0 80 -1080 0 -1080 0 0 -80 0 -80 240 0 240 0
0 -804 c0 -514 -4 -833 -11 -883 -17 -129 -75 -232 -155 -279 -139 -81 -410
-105 -611 -54 -432 111 -708 574 -822 1380 -43 307 -46 384 -46 1170 0 792 2
846 51 1175 41 284 118 561 209 752 153 325 386 521 683 578 112 22 299 19
395 -5 230 -58 405 -167 617 -386 223 -231 409 -505 650 -957 l96 -182 67 -3
67 -3 0 43 c1 24 -12 388 -27 811 l-27 767 -41 0 c-38 0 -43 -4 -76 -52 -51
-76 -86 -93 -184 -92 -85 2 -148 15 -455 94 -213 55 -403 91 -605 115 -142 16
-542 19 -700 4z"/>
</g>
</svg>
